<?xml version="1.0" encoding="iso-8859-1"?>
<!-- Generator: Adobe Illustrator 19.0.0, SVG Export Plug-In . SVG Version: 6.00 Build 0)  -->
<svg xmlns="http://www.w3.org/2000/svg" xmlns:xlink="http://www.w3.org/1999/xlink" version="1.1" id="Capa_1" x="0px" y="0px" viewBox="0 0 408 408" style="enable-background:new 0 0 408 408;" xml:space="preserve" width="512px" height="512px">
<g>
	<g>
		<path d="M391.782,139.926c9.789-7.293,16.218-18.855,16.218-32c0-22.094-17.91-40-40-40h-48c-10.375,0-19.734,4.05-26.844,10.527    C273.644,63.625,250.004,53.941,224,52.332V27.926h24v-16h-64v16h24v24.406c-12.774,0.789-25.031,3.477-36.523,7.734    c2.274-14.398-2.422-31.328-15.11-52.805c-1.398-2.364-4-3.614-6.652-3.614c-1.461,0-2.942,0.379-4.238,1.164L55.485,59.024    C45.875,64.812,40,75.215,40,86.433v53.492c0,0,0,48.106,0,48.426c0,14.734,1.902,29.008,5.313,42.687L40,236.352l-40,40l128,128    l64.426-64.426H288h24h24c22.09,0,40-17.91,40-40c0-10.242-3.965-19.488-10.297-26.562C381.016,267.75,392,253.18,392,235.926    c0-10.242-3.965-19.488-10.297-26.562C397.016,203.75,408,189.18,408,171.926C408,158.777,401.57,147.219,391.782,139.926z     M320,83.926h48c13.234,0,24,10.766,24,24c0,13.234-10.766,24-24,24h-48c-13.234,0-24-10.766-24-24    C296,94.692,306.766,83.926,320,83.926z M290.297,198.488c-14.465,5.305-24.953,18.641-26.078,34.649    c-12.782,11.598-29.641,18.774-48.218,18.774c-39.691,0-71.984-32.293-71.984-71.984s32.293-71.984,71.984-71.984    c31.262,0,57.664,20.152,67.582,48.054c-2.18,4.894-3.582,10.214-3.582,15.929C280,182.168,283.965,191.414,290.297,198.488z     M192.426,323.926c-4.242,0-8.313,1.687-11.313,4.687L128,381.723L22.629,276.352l28.687-28.687l5.313-5.317    c3.969-3.969,5.566-9.73,4.207-15.18C57.629,214.293,56,201.234,56,188.352v-48.426V86.434c0-5.578,2.965-10.828,7.742-13.703    l82.973-49.984c11.785,22.218,12.114,35.961,4.234,47.086C113.282,92.066,88,133.004,88,179.926c0,70.691,57.309,128,128,128    c11.234,0,21.969-1.851,32.344-4.594c0.664,7.711,3.426,14.758,7.836,20.594H192.426z M250.438,286.426    c-10.852,3.542-22.414,5.5-34.438,5.5c-61.758,0-112-50.242-112-112s50.242-112,112-112c25.531,0,48.988,8.703,67.836,23.156    c-2.398,5.133-3.836,10.805-3.836,16.844c0,5.77,1.418,11.145,3.637,16.078c-16.11-19.516-40.344-32.062-67.637-32.062    c-48.594,0-87.984,39.39-87.984,87.984c0,48.594,39.39,87.984,87.984,87.984c19.172,0,36.664-6.442,51.106-16.863    c1.766,4.211,4.187,8.086,7.191,11.442C263.211,266.555,254.461,275.348,250.438,286.426z M336,323.926h-24h-24    c-13.234,0-24-10.766-24-24c0-13.234,10.766-24,24-24h16h32c13.234,0,24,10.766,24,24C360,313.16,349.234,323.926,336,323.926z     M352,259.926h-16h-32c-13.234,0-24-10.766-24-24c0-13.234,10.766-24,24-24h16h32c13.234,0,24,10.766,24,24    C376,249.16,365.234,259.926,352,259.926z M368,195.926h-16h-32c-13.234,0-24-10.766-24-24c0-13.234,10.766-24,24-24h48    c13.234,0,24,10.766,24,24C392,185.16,381.234,195.926,368,195.926z" fill="#FFFFFF"/>
	</g>
</g>
<g>
	<g>
		
			<rect x="198.645" y="155.16" transform="matrix(0.6993 -0.7149 0.7149 0.6993 -46.8248 215.0154)" width="66.987" height="16.001" fill="#FFFFFF"/>
	</g>
</g>
<g>
	<g>
		<rect x="208" y="123.648" width="16" height="16" fill="#FFFFFF"/>
	</g>
</g>
<g>
	<g>
		<rect x="160" y="171.648" width="16" height="16" fill="#FFFFFF"/>
	</g>
</g>
<g>
	<g>
		<rect x="256" y="171.648" width="16" height="16" fill="#FFFFFF"/>
	</g>
</g>
<g>
	<g>
		<rect x="208" y="219.648" width="16" height="16" fill="#FFFFFF"/>
	</g>
</g>
<g>
</g>
<g>
</g>
<g>
</g>
<g>
</g>
<g>
</g>
<g>
</g>
<g>
</g>
<g>
</g>
<g>
</g>
<g>
</g>
<g>
</g>
<g>
</g>
<g>
</g>
<g>
</g>
<g>
</g>
</svg>
